<svg width="39" height="30" viewBox="0 0 39 30" fill="none" xmlns="http://www.w3.org/2000/svg">
<ellipse cx="25.9415" cy="12.9648" rx="12.4609" ry="12.4609" fill="#F3F4FF"/>
<path d="M32.5075 14.5801L31.2594 13.8835C31.4046 13.1869 31.4046 12.5194 31.2594 11.8228L32.5075 11.1262C32.6526 11.0391 32.7107 10.8649 32.6526 10.7198C32.3334 9.6749 31.7819 8.7461 31.0853 7.96242C30.9692 7.84632 30.795 7.8173 30.6499 7.90437L29.4018 8.60097C28.8794 8.1656 28.2989 7.8173 27.6603 7.5851V6.16287C27.6603 6.01774 27.5442 5.87262 27.3701 5.84359C26.2962 5.58237 25.2222 5.61139 24.2063 5.84359C24.0322 5.87262 23.9451 6.01774 23.9451 6.16287V7.5851C23.2775 7.8173 22.697 8.1656 22.1746 8.63L20.9265 7.90437C20.7814 7.8173 20.6072 7.84632 20.4911 7.96242C19.7945 8.7461 19.2431 9.6749 18.9238 10.7198C18.8657 10.8649 18.9238 11.0391 19.0689 11.1262L20.317 11.8228C20.2009 12.5194 20.2009 13.1869 20.317 13.8835L19.0689 14.5801C18.9238 14.6672 18.8657 14.8414 18.9238 14.9865C19.2431 16.0314 19.7945 16.9602 20.4911 17.7439C20.6072 17.86 20.7814 17.889 20.9265 17.8019L22.1746 17.1053C22.697 17.5407 23.2775 17.889 23.9451 18.1212V19.5434C23.9451 19.6885 24.0612 19.8337 24.2063 19.8917C25.2803 20.1239 26.3542 20.0949 27.3701 19.8917C27.5442 19.8337 27.6603 19.6885 27.6603 19.5434V18.1212C28.2989 17.889 28.8794 17.5407 29.4018 17.1053L30.6499 17.8019C30.795 17.889 30.9692 17.86 31.0853 17.7439C31.8109 16.9602 32.3334 16.0314 32.6817 14.9865C32.7107 14.8414 32.6526 14.6672 32.5075 14.5801ZM25.8027 15.1606C24.4966 15.1606 23.4807 14.1448 23.4807 12.8386C23.4807 11.5615 24.4966 10.5166 25.8027 10.5166C27.0798 10.5166 28.1247 11.5615 28.1247 12.8386C28.1247 14.1448 27.0798 15.1606 25.8027 15.1606Z" fill="#162740"/>
<ellipse cx="7.15759" cy="23.349" rx="6.23047" ry="6.23047" fill="#02D9FC"/>
</svg>
