<svg width="43" height="30" viewBox="0 0 43 30" fill="none" xmlns="http://www.w3.org/2000/svg">
<rect x="0.278442" y="0.288239" width="37.7982" height="20.3529" rx="8.3996" fill="#58EDC0"/>
<path d="M26.5834 7.08318C26.7553 7.27901 26.925 7.4765 27.0955 7.67387L27.1677 7.75642L27.2539 7.68867C27.4576 7.5266 27.6585 7.35947 27.8588 7.19095C29.586 9.19858 31.2957 11.2197 33.0123 13.2355L33.0862 13.3223L33.1739 13.2495C33.3428 13.1088 33.5126 12.967 33.6846 12.8281L33.7777 12.7527L33.699 12.6625C33.5278 12.4684 33.3617 12.2702 33.1992 12.0708C33.8785 11.4828 34.5602 10.8966 35.2541 10.3258C35.8332 11.008 36.4151 11.6874 36.9938 12.37C36.7987 12.5426 36.6059 12.7227 36.3931 12.8793L36.2767 12.9651L36.3857 13.0599C36.5819 13.2322 36.7322 13.4477 36.8993 13.6455C36.7185 13.8166 36.5295 13.9806 36.3384 14.1437L36.2571 14.2129L36.3197 14.2998C36.6465 14.7481 37.0222 15.1578 37.3754 15.5871C37.1856 15.7624 36.9905 15.934 36.7945 16.1041L36.7098 16.1781L36.7816 16.2647C37.1381 16.6901 37.4986 17.1117 37.8516 17.5398C37.6558 17.7119 37.4646 17.892 37.2539 18.0504L37.1481 18.1309L37.2409 18.2243C37.6338 18.6184 37.9673 19.069 38.3311 19.4898C38.1411 19.6581 37.9504 19.8251 37.7577 19.9911L37.6709 20.0649L37.7436 20.1526C38.2905 20.8124 38.8504 21.462 39.3972 22.1224C38.2845 23.0974 37.1583 24.0585 36.0302 25.0163C34.8749 25.9964 33.7295 26.9878 32.5521 27.9421C32.0166 27.2755 31.4046 26.6745 30.8778 26.0013L30.8016 25.9052L30.7101 25.9868C30.5211 26.1571 30.3239 26.3183 30.1264 26.476C29.5683 25.8347 29.0157 25.1871 28.4639 24.5403L28.3957 24.4601L28.31 24.5197C28.0974 24.6683 27.8978 24.8356 27.6999 25.0068C27.0779 24.2858 26.4747 23.5496 25.8357 22.8431L25.8339 22.8409L25.832 22.8387C25.1148 21.9472 24.3558 21.0898 23.6247 20.2094C23.8215 20.0446 24.0147 19.8766 24.2063 19.7088L24.29 19.6357L24.2202 19.5492C24.0605 19.3537 23.8985 19.1583 23.7308 18.9675C23.9264 18.791 24.131 18.6277 24.3201 18.4471L24.3933 18.3772L24.3333 18.2957C24.1774 18.0838 23.9987 17.8879 23.8291 17.6831C24.2528 17.3197 24.6805 16.9617 25.0995 16.5943L25.1843 16.5203L25.1125 16.4337C24.9525 16.239 24.7914 16.0451 24.625 15.8542C25.2478 15.2647 25.9207 14.7305 26.5667 14.1677L26.6493 14.0955L26.5825 14.0103C26.4232 13.8051 26.2582 13.6039 26.0879 13.4047C26.5104 13.0416 26.9374 12.6841 27.3533 12.3145L27.4361 12.2403L27.3652 12.1548C26.6264 11.2697 25.8743 10.3956 25.1301 9.51506C25.2423 9.41768 25.3547 9.32052 25.4676 9.22401C25.5519 9.15206 25.6362 9.08093 25.7212 9.0101L25.8122 8.93454L25.7345 8.8454C25.56 8.64649 25.3888 8.44461 25.2377 8.22833C25.6875 7.84786 26.137 7.46759 26.5834 7.08318L26.5834 7.08318Z" fill="white"/>
<path d="M26.5838 7.08259C26.1374 7.467 25.688 7.8479 25.2383 8.22836C25.4082 8.47165 25.6017 8.69719 25.7979 8.91885C26.2577 8.53511 26.7085 8.14164 27.1694 7.75921C26.9744 7.53355 26.7806 7.30676 26.5838 7.08259Z" fill="#162740"/>
<path d="M27.8587 7.19022C27.6309 7.38185 27.4041 7.5756 27.1692 7.75888C29.3035 10.2677 31.4343 12.7795 33.5716 15.2857C33.8046 15.0965 34.0331 14.9021 34.2574 14.7028C34.0708 14.4746 33.8793 14.2496 33.6848 14.0273C33.9045 13.8251 34.1328 13.6331 34.3607 13.4407C34.1729 13.205 33.9791 12.9737 33.7752 12.7518C33.5413 12.9364 33.3164 13.1324 33.0863 13.3222C31.3448 11.2776 29.6107 9.22664 27.8587 7.19022Z" fill="#162740"/>
<path d="M25.8094 8.93681C25.5805 9.12631 25.3553 9.3202 25.1309 9.51496C25.8996 10.4245 26.6779 11.3266 27.44 12.2417C26.9976 12.6387 26.5394 13.0172 26.0887 13.4046C26.2817 13.6305 26.4738 13.8571 26.6532 14.0946C25.9815 14.6852 25.276 15.2387 24.626 15.8539C24.8168 16.0727 25.0035 16.2948 25.1868 16.5199C24.7404 16.9142 24.2821 17.2952 23.8297 17.6832C24.0199 17.913 24.2289 18.1291 24.3973 18.376C24.1887 18.5876 23.9523 18.7683 23.7321 18.9671C23.924 19.1855 24.1108 19.4085 24.2935 19.6348C24.0737 19.8287 23.8515 20.0208 23.6259 20.2097C24.3576 21.0909 25.117 21.9485 25.8347 22.8408C26.4744 23.5479 27.0789 24.285 27.7015 25.0068C27.925 24.8136 28.1492 24.6212 28.396 24.459C28.9708 25.1327 29.5456 25.8072 30.127 26.4753C30.3571 26.2916 30.588 26.108 30.8023 25.9067C30.2437 25.1987 29.647 24.5216 29.056 23.8404C28.8324 24.0345 28.6066 24.2267 28.3793 24.4171C27.0215 22.8225 25.6632 21.2291 24.3049 19.6349C24.5277 19.44 24.7535 19.2486 24.9812 19.0594C24.8051 18.8267 24.6006 18.6158 24.4302 18.379C24.6172 18.1456 24.8681 17.9776 25.0932 17.7845C25.6802 18.4645 26.2497 19.1595 26.8459 19.8324C27.0695 19.6429 27.2931 19.4526 27.5167 19.2631C26.7554 18.3374 25.963 17.4382 25.192 16.5208C25.6472 16.1289 26.1057 15.7409 26.5638 15.3534C27.1456 16.0371 27.7204 16.7267 28.3098 17.4032C28.5406 17.2151 28.7669 17.0226 28.9894 16.8256C28.2179 15.9101 27.4425 14.9972 26.6557 14.0948C27.1116 13.703 27.5687 13.3133 28.031 12.929C28.811 13.8357 29.5778 14.7536 30.3564 15.6615C30.591 15.4733 30.8207 15.2785 31.044 15.0771C29.3011 13.0291 27.5566 10.9819 25.8094 8.93681Z" fill="#162740"/>
<path d="M35.2544 10.3257C34.5605 10.8965 33.879 11.4826 33.1997 12.0705C33.3878 12.3013 33.5764 12.531 33.776 12.7521C34.2388 12.3764 34.686 11.9822 35.1424 11.5998C35.5435 12.0373 35.8882 12.5251 36.3029 12.9501C36.5539 12.7821 36.7691 12.5686 36.9943 12.3693C36.4157 11.6867 35.8335 11.0079 35.2544 10.3257Z" fill="#162740"/>
<path d="M36.2968 12.9815C36.0483 13.1346 35.8359 13.3373 35.6197 13.5319C35.809 13.7641 36.003 13.9929 36.1996 14.2195C35.9722 14.4153 35.7438 14.6089 35.518 14.8065C35.8997 15.2657 36.292 15.716 36.6764 16.173C36.4498 16.3635 36.2244 16.5561 36.0011 16.7514C36.3924 17.2049 36.751 17.6921 37.1838 18.1064C37.4233 17.9374 37.6326 17.732 37.8515 17.5396C37.4749 17.0828 37.0904 16.6328 36.7107 16.1786C36.9354 15.9851 37.1579 15.7889 37.3759 15.5875C37.0012 15.1321 36.5963 14.7009 36.2562 14.2184C36.4753 14.0334 36.6907 13.8432 36.899 13.6463C36.7061 13.418 36.5393 13.1615 36.2968 12.9815Z" fill="#162740"/>
<path d="M37.156 18.1353C36.9179 18.3077 36.7023 18.5093 36.4794 18.7013C36.8595 19.1605 37.2514 19.6095 37.636 20.064C37.4077 20.2569 37.1792 20.4513 36.9579 20.6533C37.3398 21.1109 37.7347 21.5581 38.1144 22.0176C36.2987 23.5704 34.4784 25.118 32.6582 26.6655C32.2645 26.2172 31.8867 25.7554 31.4948 25.3047C31.2593 25.4998 31.0238 25.6949 30.8022 25.9063C31.3449 26.6188 31.9916 27.2434 32.5526 27.9418C33.73 26.9875 34.8752 25.9955 36.0305 25.0153C37.1587 24.0575 38.2846 23.0971 39.3973 22.1221C38.8266 21.4328 38.2418 20.7554 37.6723 20.0657C37.8943 19.8761 38.1136 19.6834 38.3322 19.4898C37.9413 19.0376 37.5878 18.5482 37.156 18.1353Z" fill="#162740"/>
<path d="M24.0075 11.7291L25.142 6.74186C25.2145 6.38221 24.9489 6.02255 24.5627 6.02255H15.1004L14.8831 4.96755C14.8107 4.7038 14.5693 4.48801 14.3038 4.48801H11.8417C11.5037 4.48801 11.2623 4.75176 11.2623 5.06346V5.4471C11.2623 5.78278 11.5037 6.02255 11.8417 6.02255H13.5072L15.2211 14.2707C14.8107 14.5105 14.5452 14.9421 14.5452 15.4216C14.5452 16.1649 15.1487 16.7643 15.8969 16.7643C16.6211 16.7643 17.2487 16.1649 17.2487 15.4216C17.2487 15.062 17.0797 14.7263 16.8384 14.4625H21.8833C21.6419 14.7263 21.4971 15.062 21.4971 15.4216C21.4971 16.1649 22.1006 16.7643 22.8489 16.7643C23.573 16.7643 24.2006 16.1649 24.2006 15.4216C24.2006 14.8941 23.8868 14.4385 23.4282 14.2228L23.5489 13.6473C23.6455 13.2876 23.3558 12.928 22.9937 12.928H16.5246L16.3556 12.1607H23.4282C23.6937 12.1607 23.9351 11.9929 24.0075 11.7291Z" fill="#162740"/>
</svg>
