<svg width="32" height="32" viewBox="0 0 32 32" fill="none" xmlns="http://www.w3.org/2000/svg">
<circle cx="15.6283" cy="16.1229" r="13.1334" fill="#F3F4FF"/>
<path d="M22.1599 0.827027L31.021 0.827026L31.021 9.6878L22.1599 0.827027Z" fill="#02D9FC"/>
<path d="M0.191285 23.1183L0.191284 31.9795L9.05206 31.9795L0.191285 23.1183Z" fill="#02D9FC"/>
<path d="M13.3855 20.6192C13.6382 20.872 14.0678 20.872 14.3205 20.6192L21.7503 13.1895C22.003 12.9368 22.003 12.5072 21.7503 12.2545L20.8405 11.3447C20.5878 11.092 20.1834 11.092 19.9307 11.3447L13.8656 17.4098L11.01 14.5794C10.7573 14.3267 10.3529 14.3267 10.1002 14.5794L9.19045 15.4892C8.93774 15.7419 8.93774 16.1715 9.19045 16.4242L13.3855 20.6192Z" fill="#162740"/>
</svg>
