<svg width="1012" height="320" viewBox="0 0 1012 320" fill="none" xmlns="http://www.w3.org/2000/svg">
<path fill-rule="evenodd" clip-rule="evenodd" d="M562 0.396225C558.425 0.733225 553.475 1.77523 551 2.71323C548.525 3.65023 545.6 4.68123 544.5 5.00423C543.4 5.32623 539.35 7.59223 535.5 10.0392C531.65 12.4862 526.994 15.9042 525.153 17.6362C523.312 19.3682 519.877 23.4852 517.52 26.7852C515.163 30.0852 512.219 35.0352 510.977 37.7852C509.735 40.5352 507.882 45.7092 506.859 49.2822C505.531 53.9232 505 59.0652 505 67.2852C505 75.7732 505.523 80.6262 506.994 85.7882C508.091 89.6362 510.322 95.4852 511.953 98.7852C513.584 102.085 517.074 107.363 519.709 110.515C522.344 113.666 526.975 118.085 530 120.335C533.025 122.585 537.96 125.558 540.966 126.941C543.972 128.324 548.247 130.043 550.466 130.762C552.685 131.481 556.525 132.369 559 132.735C561.475 133.101 567.325 133.449 572 133.508C576.675 133.568 582.975 133.277 586 132.863C589.025 132.449 593.975 131.413 597 130.561C600.025 129.709 604.975 127.895 608 126.53C611.025 125.164 616.542 122.038 620.259 119.583C623.977 117.128 627.464 114.286 628.009 113.268C628.592 112.179 629 100.526 629 84.9732C629 63.7802 628.727 58.3042 627.628 57.3912C626.658 56.5862 618.37 56.3302 599.378 56.5182L572.5 56.7852V69.2852V81.7852L586.5 82.2852L600.5 82.7852L600.803 89.2542C600.97 92.8122 600.869 96.6712 600.578 97.8302C600.251 99.1332 598.002 100.939 594.676 102.567C591.721 104.014 586.311 105.676 582.654 106.26C578.997 106.845 573.254 107.066 569.892 106.752C566.53 106.437 561.917 105.461 559.64 104.582C557.363 103.703 553.925 101.831 552 100.422C550.075 99.0132 547.026 96.2682 545.225 94.3232C543.424 92.3772 540.795 88.3182 539.382 85.3022C537.97 82.2862 536.378 77.1152 535.846 73.8112C535.314 70.5062 535.162 65.5492 535.507 62.7942C535.853 60.0392 536.847 55.5352 537.715 52.7852C538.583 50.0352 540.676 45.7602 542.366 43.2852C544.056 40.8102 546.577 37.7172 547.969 36.4112C549.361 35.1052 552.075 33.0572 554 31.8602C555.925 30.6632 559.525 29.0322 562 28.2352C564.475 27.4372 569.779 26.8412 573.787 26.9102C577.796 26.9792 583.584 27.8242 586.652 28.7892C589.719 29.7542 595.126 32.4862 598.668 34.8622C602.211 37.2372 605.647 38.9442 606.304 38.6542C606.962 38.3642 610.987 33.9102 615.25 28.7562C619.513 23.6012 623 18.5712 623 17.5772C623 16.4742 620.562 14.1302 616.75 11.5682C613.313 9.25824 608.341 6.45623 605.702 5.34123C603.063 4.22723 598.312 2.64324 595.144 1.82224C591.976 1.00124 584.685 0.207236 578.942 0.0572358C573.199 -0.0917642 565.575 0.0602251 562 0.396225ZM380.24 0.951233C379.546 1.23023 377.811 4.00724 376.383 7.12224C374.954 10.2372 372.963 14.8662 371.957 17.4102C370.951 19.9542 369.199 24.1172 368.064 26.6602C366.929 29.2042 365.154 33.1972 364.12 35.5352C363.086 37.8732 360.572 43.8352 358.533 48.7852C356.494 53.7352 353.515 60.6292 351.913 64.1052C350.311 67.5812 349 70.9782 349 71.6552C349 72.3312 348.614 73.3132 348.143 73.8352C347.671 74.3582 345.816 78.3852 344.02 82.7852C342.224 87.1852 339.962 92.5852 338.995 94.7852C338.027 96.9852 336.337 100.81 335.24 103.285C334.143 105.76 331.772 111.385 329.972 115.785C328.171 120.185 326.349 124.24 325.924 124.797C325.498 125.353 325.004 127.153 324.825 128.797L324.5 131.785L338.69 132.062L352.88 132.339L354.372 129.062C355.193 127.26 357.749 121.06 360.053 115.285C362.356 109.51 364.948 104.223 365.812 103.535C366.974 102.61 373.917 102.285 392.536 102.285C415.635 102.285 417.825 102.434 419.345 104.114C420.255 105.12 421.002 106.357 421.005 106.864C421.008 107.37 423.046 112.705 425.535 118.718C428.023 124.731 430.551 130.244 431.152 130.968C431.952 131.932 435.676 132.285 445.041 132.285C452.078 132.285 458.548 132.012 459.418 131.678C460.288 131.344 461 130.683 461 130.208C461 129.733 459.921 126.968 458.603 124.065C457.284 121.161 454.082 113.61 451.487 107.285C448.891 100.96 445.92 93.8722 444.884 91.5352C443.848 89.1972 442.071 85.2042 440.936 82.6602C439.801 80.1172 438.03 75.8982 437 73.2852C435.97 70.6722 434.154 66.3412 432.964 63.6602C431.774 60.9792 430.42 57.8852 429.955 56.7852C429.49 55.6852 428.227 52.7602 427.148 50.2852C426.07 47.8102 423.517 41.7352 421.474 36.7852C419.432 31.8352 416.862 25.7602 415.764 23.2852C414.666 20.8102 413.184 17.4352 412.47 15.7852C411.756 14.1352 410.02 10.2502 408.61 7.15123C407.201 4.05223 405.325 1.24023 404.442 0.90123C403.559 0.56223 398.036 0.321227 392.168 0.364227C386.301 0.407227 380.933 0.671233 380.24 0.951233ZM1.2 2.48523C0.291997 3.39323 0 19.1722 0 67.3782C0 124.535 0.162001 131.133 1.582 131.678C2.452 132.012 14.358 132.285 28.041 132.285C41.723 132.285 56.424 131.799 60.709 131.206C64.994 130.612 71.875 128.984 76 127.587C80.125 126.191 87.142 122.644 91.594 119.707C96.046 116.769 101.709 111.985 104.178 109.075C106.648 106.166 109.824 101.76 111.236 99.2852C112.649 96.8102 114.973 91.4962 116.402 87.4752C118.693 81.0312 119 78.6232 119 67.1292C119 58.1502 118.499 52.3332 117.389 48.4392C116.503 45.3292 115.378 42.3582 114.889 41.8352C114.4 41.3132 114 40.2472 114 39.4682C114 38.6882 111.711 34.6162 108.914 30.4182C106.117 26.2202 101.672 21.0132 99.036 18.8462C96.4 16.6802 91.535 13.2702 88.224 11.2682C84.914 9.26623 78.909 6.58824 74.88 5.31624C70.851 4.04524 64.393 2.63724 60.527 2.18924C56.662 1.74024 42.002 1.35324 27.95 1.32924C9.36 1.29724 2.073 1.61223 1.2 2.48523ZM161.484 2.31023C161.072 2.97823 160.73 31.9852 160.726 66.7712C160.721 101.557 161.032 130.528 161.417 131.152C161.88 131.9 166.443 132.285 174.859 132.285C183.435 132.285 187.992 131.893 188.8 131.085C189.65 130.235 190 124.287 190 110.692C190 94.1132 190.215 91.4162 191.582 90.8922C192.452 90.5582 197.098 90.2852 201.907 90.2852C209.718 90.2852 210.864 90.5252 212.643 92.5352C213.739 93.7732 219.078 101.535 224.508 109.785C229.939 118.035 235.684 126.473 237.275 128.535L240.168 132.285H256.084C269.782 132.285 272 132.069 272 130.738C272 129.887 266.735 121.449 260.3 111.988C253.866 102.526 247.286 92.9182 245.679 90.6362C244.072 88.3542 243.012 86.0752 243.323 85.5722C243.634 85.0692 245.983 83.5792 248.544 82.2632C251.104 80.9462 255.173 77.9232 257.585 75.5452C259.996 73.1672 263.291 68.4232 264.905 65.0032C266.52 61.5832 268.362 55.5562 268.998 51.6092C269.944 45.7482 269.881 42.9762 268.655 36.4792C267.83 32.1042 266.018 26.2802 264.627 23.5362C263.237 20.7932 260.272 16.8172 258.039 14.7012C255.806 12.5842 251.846 9.69122 249.24 8.27122C246.633 6.85123 242.025 4.84623 239 3.81523C234.137 2.15823 229.373 1.89223 197.867 1.51923C170.629 1.19623 162.058 1.38323 161.484 2.31023ZM682.227 2.45824C681.303 3.38224 681 12.6122 681 39.8262C681 59.7042 681.464 79.7512 682.032 84.3762C682.599 89.0012 683.577 94.5852 684.205 96.7852C684.833 98.9852 686.601 103.54 688.133 106.907C689.829 110.634 693.107 115.234 696.512 118.667C699.589 121.768 704.319 125.426 707.023 126.797C709.728 128.167 713.866 129.923 716.22 130.699C718.574 131.474 723.425 132.452 727 132.872C730.575 133.291 735.975 133.626 739 133.616C742.025 133.606 746.75 133.284 749.5 132.9C752.25 132.516 756.3 131.686 758.5 131.054C760.7 130.422 764.975 128.773 768 127.39C771.222 125.916 776.016 122.37 779.575 118.829C783.335 115.089 786.858 110.308 788.82 106.285C790.563 102.71 792.554 97.3102 793.244 94.2852C794.145 90.3302 794.498 76.5662 794.499 45.2852L794.5 1.78523L780.776 1.50723C767.208 1.23223 767.046 1.25523 766.537 3.50723C766.254 4.76023 765.888 23.5602 765.724 45.2852C765.461 80.2112 765.219 85.3642 763.638 89.7852C762.654 92.5352 760.532 96.2562 758.922 98.0532C757.312 99.8512 754.309 102.316 752.248 103.532C749.1 105.388 746.979 105.745 739 105.763C731.952 105.779 728.552 105.33 725.825 104.024C723.804 103.055 720.402 100.277 718.266 97.8502C716.13 95.4232 713.764 91.7162 713.009 89.6112C711.965 86.7042 711.499 75.6942 711.068 43.7852L710.5 1.78523L696.977 1.50824C687.307 1.31024 683.104 1.58124 682.227 2.45824ZM853.2 2.48523C852.292 3.39323 852 19.1722 852 67.3782C852 124.535 852.162 131.133 853.582 131.678C854.452 132.012 860.265 132.285 866.5 132.285C872.735 132.285 878.548 132.012 879.418 131.678C880.823 131.139 881 126.77 881 92.7372C881 70.4282 881.385 54.1652 881.922 53.8332C882.429 53.5202 886.001 57.4312 889.861 62.5242C893.721 67.6182 899.284 74.9352 902.224 78.7852C905.165 82.6352 912.692 92.5352 918.952 100.785C925.212 109.035 933.221 119.497 936.75 124.035L943.166 132.285H954.001C959.961 132.285 965.548 132.012 966.418 131.678C967.838 131.133 968 124.483 968 66.7852C968 9.08723 967.838 2.43723 966.418 1.89223C965.548 1.55823 959.296 1.28523 952.525 1.28523C942.221 1.28523 940.115 1.54323 939.607 2.86723C939.273 3.73723 939 21.0842 939 41.4162C939 73.3822 938.804 78.2752 937.553 77.5752C936.757 77.1292 932.183 71.5942 927.388 65.2752C922.593 58.9552 914.582 48.3862 909.585 41.7872C904.588 35.1882 900.05 29.2732 899.5 28.6422C898.95 28.0112 894.019 21.5972 888.542 14.3902L878.583 1.28523H866.492C858.42 1.28523 854.001 1.68423 853.2 2.48523ZM67.478 31.8012C70.766 33.3662 75.491 36.7052 77.978 39.2222C80.465 41.7392 83.544 45.8102 84.821 48.2692C86.097 50.7272 87.646 56.2002 88.262 60.4302C89.092 66.1222 89.091 69.6962 88.257 74.1782C87.638 77.5092 85.946 82.6082 84.498 85.5102C83.05 88.4112 80.282 92.4182 78.347 94.4142C76.412 96.4112 72.505 99.1512 69.665 100.504C66.824 101.857 62.025 103.516 59 104.19C55.769 104.911 48.55 105.286 41.5 105.101L29.5 104.785L29.237 67.7892C29.093 47.4412 29.214 30.1702 29.506 29.4082C29.939 28.2812 32.97 28.1092 45.769 28.4892C60.49 28.9262 61.884 29.1392 67.478 31.8012ZM231.218 31.1742C233.262 32.4232 235.897 35.0012 237.073 36.9032C238.581 39.3432 239.226 42.0552 239.264 46.1152C239.302 50.1102 238.743 52.7732 237.435 54.8272C236.399 56.4542 234.671 58.5842 233.594 59.5602C232.517 60.5362 229.312 62.0112 226.47 62.8372C222.637 63.9512 217.327 64.2672 205.902 64.0622L190.5 63.7852L190.224 47.3232C190.073 38.2702 190.19 30.2332 190.485 29.4642C190.925 28.3162 194.281 28.1412 209.261 28.4852C226.061 28.8702 227.793 29.0822 231.218 31.1742ZM400.713 57.6642C404.742 67.4272 407.778 75.8352 407.46 76.3502C407.142 76.8642 400.185 77.2852 392 77.2852C383.578 77.2852 376.861 76.8692 376.525 76.3262C376.199 75.7982 376.345 74.5612 376.849 73.5762C377.354 72.5912 378.239 70.6602 378.816 69.2852C379.393 67.9102 380.524 65.2102 381.329 63.2852C382.135 61.3602 384.181 56.3502 385.878 52.1512C387.574 47.9522 389.423 43.3032 389.987 41.8202C390.551 40.3362 391.547 39.3012 392.2 39.5182C392.854 39.7362 396.685 47.9022 400.713 57.6642ZM1.115 184.646C0.294998 185.634 0.0559962 203.537 0.242996 249.896L0.5 313.785L32 314.096C51.177 314.285 67.021 313.969 72.5 313.289C77.45 312.674 82.85 311.676 84.5 311.07C86.15 310.465 89.473 309.102 91.883 308.041C94.294 306.981 98.431 303.949 101.076 301.304C103.721 298.659 106.511 294.985 107.275 293.14C108.039 291.295 109.217 286.95 109.892 283.484C110.828 278.684 110.852 275.826 109.992 271.484C109.371 268.35 108.177 264.279 107.338 262.437C106.5 260.596 103.912 257.221 101.587 254.937C99.263 252.654 95.263 249.745 92.699 248.474L88.036 246.163L93.434 240.892C96.403 237.994 99.528 233.956 100.379 231.921C101.229 229.885 102.288 225.422 102.731 222.002C103.174 218.583 103.158 213.985 102.696 211.785C102.234 209.585 100.706 205.419 99.301 202.528C97.896 199.636 95.137 195.856 93.169 194.129C91.201 192.401 87.204 189.894 84.287 188.559C81.37 187.223 75.049 185.492 70.241 184.712C64.106 183.716 52.666 183.291 31.872 183.289C8.09299 183.286 2.022 183.554 1.115 184.646ZM164.493 185.535C164.193 186.773 164.072 216.135 164.224 250.785L164.5 313.785H213.5H262.5L262.78 301.048L263.06 288.311L228.28 288.048L193.5 287.785V274.785V261.785L223.235 261.52L252.969 261.255L253.526 259.02C253.833 257.791 253.952 252.06 253.792 246.285L253.5 235.785L223.22 235.52L192.94 235.256L193.22 222.52L193.5 209.785L228 209.285L262.5 208.785L262.782 197.638C263.013 188.483 262.777 186.205 261.46 184.888C260.034 183.462 254.613 183.285 212.448 183.285H165.038L164.493 185.535ZM374.2 184.485C373.54 185.145 373 186.405 373 187.285C373 188.165 372.609 189.313 372.13 189.835C371.652 190.357 369.345 195.51 367.003 201.285C364.661 207.06 361.453 214.609 359.873 218.06C358.293 221.511 357 224.574 357 224.865C357 225.156 356.142 227.283 355.094 229.59C354.045 231.897 351.517 237.835 349.474 242.785C347.432 247.735 344.914 253.698 343.88 256.035C342.846 258.372 341.154 262.198 340.12 264.535C339.086 266.872 336.58 272.835 334.552 277.785C332.523 282.735 329.484 289.935 327.799 293.785C326.113 297.635 323.645 303.21 322.314 306.175C320.983 309.139 320.128 312.177 320.415 312.925C320.821 313.982 324.049 314.285 334.896 314.285H348.855L351.427 308.847C352.842 305.856 354 303.015 354 302.534C354 302.053 355.125 299.327 356.5 296.477C357.875 293.627 359.014 290.73 359.032 290.04C359.049 289.35 359.715 287.924 360.511 286.872C361.861 285.089 363.576 284.95 385.729 284.828C398.803 284.756 410.816 284.953 412.424 285.266C415.119 285.791 415.795 286.927 421.08 299.81L426.812 313.785L441.906 314.061C454.948 314.3 457 314.128 457 312.797C457 311.951 456.587 310.476 456.082 309.521C455.577 308.566 454.198 305.591 453.018 302.91C451.838 300.229 450.03 295.898 449 293.285C447.97 290.672 446.154 286.341 444.964 283.66C443.774 280.979 442.421 277.885 441.957 276.785C441.494 275.685 439.963 272.184 438.557 269.005C437.151 265.827 436 263.012 436 262.75C436 262.489 434.875 259.943 433.5 257.093C432.125 254.243 431 251.557 431 251.125C431 250.693 429.875 247.852 428.5 244.812C427.125 241.772 424.875 236.798 423.5 233.758C422.125 230.718 421 227.877 421 227.445C421 227.014 420.159 224.889 419.132 222.723C418.104 220.557 416.587 217.21 415.762 215.285C414.936 213.36 412.626 208.09 410.63 203.574C408.633 199.058 407 195.132 407 194.851C407 194.57 405.822 191.852 404.383 188.812L401.766 183.285H388.583C379.663 183.285 375.012 183.673 374.2 184.485ZM511.75 184.349C510.13 185.307 510 188.336 510 225.085C510 255.833 510.33 266.476 511.463 272.285C512.267 276.41 513.502 281.36 514.207 283.285C514.912 285.21 516.649 288.95 518.068 291.595C519.486 294.241 522.581 298.402 524.946 300.842C527.311 303.282 531.553 306.598 534.373 308.21C537.193 309.823 541.525 311.824 544 312.658C546.475 313.492 552.433 314.739 557.239 315.428C564.255 316.435 567.969 316.434 576.077 315.422C581.632 314.729 587.374 313.685 588.838 313.102C590.302 312.519 593.975 310.876 597 309.452C600.157 307.965 605.056 304.289 608.5 300.823C611.8 297.502 615.717 292.31 617.205 289.285C618.693 286.26 620.673 281.31 621.604 278.285C623.049 273.591 623.364 266.447 623.752 229.513C624.103 196.249 623.924 185.899 622.982 184.763C622.025 183.61 619.129 183.285 609.812 183.285C603.243 183.285 596.998 183.751 595.934 184.32C594.07 185.318 594 186.848 594 226.792C594 268.186 593.998 268.233 591.638 273.506C590.34 276.41 588.146 279.984 586.765 281.45C585.383 282.916 582.414 285.054 580.166 286.2C576.983 287.824 574.22 288.285 567.667 288.285C561.411 288.285 558.088 287.769 554.706 286.273C552.204 285.167 548.981 282.863 547.543 281.153C546.104 279.444 544.197 276.637 543.305 274.915C542.413 273.194 541.227 270.21 540.67 268.285C540.11 266.347 539.399 246.709 539.079 224.285L538.5 183.785L526 183.55C518.726 183.412 512.768 183.747 511.75 184.349ZM684.67 184.537C683.155 185.645 682.97 187.39 683.217 198.295L683.5 210.785L703 211.285L722.5 211.785L723 262.785L723.5 313.785H737.5H751.5L752 262.785L752.5 211.785L771.5 211.285L790.5 210.785V197.285V183.785L738.453 183.526C697.642 183.323 686.032 183.541 684.67 184.537ZM846.667 183.952C846.3 184.318 846 185.238 846 185.995C846 186.752 856.792 204.411 869.983 225.237L893.965 263.103L894.233 288.444L894.5 313.785H908.5H922.5L923 287.785L923.5 261.785L930 251.744C933.575 246.222 936.95 240.965 937.5 240.064C938.05 239.162 945.925 226.826 955 212.65C964.075 198.474 971.667 186.465 971.872 185.965C972.076 185.464 971.626 184.663 970.872 184.185C970.117 183.707 963.128 183.309 955.339 183.3L941.178 183.285L938.491 186.479C937.013 188.235 935.401 190.598 934.909 191.729C934.417 192.86 928.657 202.56 922.109 213.285C915.561 224.01 909.595 232.785 908.852 232.785C908.108 232.785 900.975 221.897 893 208.59C883.5 192.739 877.81 184.209 876.5 183.854C875.4 183.556 868.388 183.306 860.917 183.299C853.446 183.291 847.033 183.585 846.667 183.952ZM64.195 210.836C66.699 211.689 69.8 213.508 71.088 214.878C72.947 216.858 73.429 218.484 73.429 222.785C73.429 227.127 72.952 228.707 71.024 230.759C69.702 232.167 67.018 233.785 65.06 234.355C63.027 234.947 54.422 235.262 45 235.088L28.5 234.785L28.216 223.428C28.028 215.911 28.323 211.6 29.089 210.678C29.981 209.603 33.599 209.285 44.944 209.285C55.602 209.285 60.895 209.711 64.195 210.836ZM390 222.617C390 223.349 393.15 231.525 397 240.785C400.85 250.045 404 257.996 404 258.453C404 258.911 397.052 259.285 388.559 259.285C380.066 259.285 372.912 258.948 372.661 258.535C372.409 258.122 375.128 250.585 378.702 241.785C382.276 232.985 385.681 224.773 386.269 223.535C386.857 222.297 387.937 221.285 388.669 221.285C389.401 221.285 390 221.884 390 222.617ZM69.081 261.666C71.898 262.091 74.978 263.456 77.081 265.211C80.279 267.882 80.5 268.455 80.5 274.095C80.5 279.066 80.083 280.568 78.124 282.654C76.816 284.045 73.699 285.881 71.195 286.734C67.756 287.906 62.308 288.285 48.904 288.285C39.147 288.285 30.452 288.012 29.582 287.678C28.258 287.17 28 285.061 28 274.728C28 265.07 28.311 262.21 29.429 261.585C30.214 261.145 38.427 260.828 47.679 260.88C56.93 260.932 66.561 261.286 69.081 261.666ZM977.946 277.134C975.501 278.7 972.67 280.921 971.655 282.067C970.64 283.214 969.197 285.87 968.449 287.969C967.7 290.068 967.068 293.641 967.044 295.91C967.02 298.179 967.303 301.548 967.673 303.398C968.107 305.571 970.142 308.534 973.423 311.773C976.966 315.271 979.948 317.2 983.295 318.159C985.932 318.914 989.692 319.272 991.651 318.954C993.61 318.636 997.062 317.412 999.323 316.234C1001.58 315.055 1004.28 313.122 1005.31 311.938C1006.35 310.754 1008.11 308.004 1009.22 305.828C1010.63 303.081 1011.21 300.132 1011.12 296.187C1011.05 293.061 1010.42 289.131 1009.71 287.455C1009.01 285.778 1006.98 282.806 1005.2 280.851C1003.42 278.895 1000.34 276.618 998.358 275.79C996.377 274.962 991.974 274.285 988.574 274.285C983.485 274.285 981.605 274.789 977.946 277.134ZM994.477 278.4C996.665 279.008 1000.11 281.159 1002.13 283.181C1004.34 285.391 1006.28 288.602 1006.98 291.23C1007.63 293.636 1007.86 297.219 1007.5 299.194C1007.13 301.169 1005.93 304.257 1004.82 306.056C1003.72 307.856 1001.23 310.536 999.291 312.012C996.273 314.314 994.806 314.697 989 314.697C983.112 314.697 981.746 314.329 978.529 311.875C976.494 310.323 973.97 307.643 972.919 305.919C971.575 303.716 971.006 300.923 971.004 296.515C971.001 291.617 971.525 289.414 973.398 286.447C974.716 284.358 977.04 281.834 978.561 280.837C980.082 279.84 982.491 278.672 983.914 278.241C985.336 277.81 987.4 277.421 988.5 277.377C989.6 277.332 992.29 277.793 994.477 278.4ZM980.25 283.947C979.353 284.309 979 287.657 979 295.801C979 306.199 979.164 307.202 980.962 307.773C982.041 308.116 983.841 307.905 984.962 307.305C986.083 306.705 987 305.33 987 304.25C987 303.169 987.578 302.285 988.284 302.285C988.991 302.285 990.366 303.635 991.341 305.285C992.618 307.447 993.865 308.281 995.807 308.27C997.288 308.261 999.126 307.858 999.892 307.373C1001.03 306.649 1000.88 305.928 999.035 303.335C997.005 300.483 996.935 300.013 998.316 298.481C999.156 297.548 1000.13 295.642 1000.48 294.246C1000.83 292.849 1000.64 290.465 1000.06 288.948C999.421 287.261 997.662 285.624 995.538 284.737C993.628 283.938 989.687 283.321 986.782 283.364C983.877 283.407 980.938 283.67 980.25 283.947ZM991.722 291.407C992.339 292.024 992.606 293.149 992.315 293.907C992.024 294.665 990.961 295.285 989.952 295.285C988.943 295.285 987.827 294.813 987.47 294.237C987.114 293.661 987.074 292.536 987.38 291.737C987.686 290.938 988.536 290.285 989.269 290.285C990.001 290.285 991.105 290.79 991.722 291.407Z" fill="white"/>
</svg>
