<svg width="63" height="79" viewBox="0 0 63 79" fill="none" xmlns="http://www.w3.org/2000/svg">
<circle cx="32.1396" cy="30.6373" r="26.1043" fill="#1BB0F0"/>
<circle cx="32.1395" cy="30.6371" r="13.7391" fill="#54EBBF"/>
<path d="M33.5843 36.3272C33.5303 36.8512 33.482 37.3751 33.4321 37.8999L33.4099 38.1204L33.1884 38.1098C32.6632 38.0812 32.1366 38.041 31.6092 37.998C31.1142 43.3274 30.6637 48.6584 30.1956 53.989L30.1755 54.2184L29.9458 54.2013C29.5029 54.1672 29.0572 54.1324 28.6111 54.105L28.3696 54.0897L28.3936 53.8489C28.4483 53.3287 28.4899 52.8079 28.5242 52.289C26.7169 52.1156 24.9074 51.948 23.0961 51.8199C22.9408 53.6218 22.7774 55.4223 22.6233 57.2243C23.1467 57.2802 23.6751 57.3511 24.2091 57.3601L24.5013 57.3652L24.4326 57.6489C24.3111 58.1625 24.3158 58.6934 24.2722 59.215C24.7703 59.285 25.2737 59.334 25.7795 59.379L25.9944 59.3978L25.993 59.6143C25.9795 60.7354 25.8401 61.8501 25.7608 62.9708C26.2787 63.0375 26.8011 63.0918 27.323 63.1426L27.5492 63.1653L27.5323 63.3921C27.4429 64.5102 27.3427 65.6267 27.2624 66.7454C27.7862 66.7996 28.3122 66.8724 28.8448 66.8867L29.1132 66.8956L29.0698 67.1581C28.8839 68.2672 28.8618 69.3999 28.7552 70.5191C29.2653 70.5739 29.775 70.6258 30.2868 70.6736L30.5162 70.6937L30.499 70.9233C30.3706 72.6504 30.2085 74.376 30.0809 76.1042C33.0554 76.4078 36.0358 76.6726 39.0156 76.9298C42.0664 77.192 45.1139 77.4844 48.1707 77.6781C48.2724 75.953 48.5771 74.2465 48.657 72.5207L48.6699 72.2731L48.9162 72.3005C49.4269 72.3598 49.9406 72.3945 50.4505 72.4231C50.6192 70.7132 50.7712 68.9994 50.9232 67.2879L50.9418 67.0759L51.1526 67.0739C51.6768 67.0697 52.2015 67.1117 52.728 67.162C52.9085 65.246 53.0404 63.3271 53.2659 61.4151L53.2664 61.4093L53.2669 61.4035C53.4048 59.0952 53.6514 56.7942 53.8251 54.4879C53.3081 54.4467 52.7931 54.3962 52.281 54.344L52.0576 54.3215L52.0714 54.0974C52.1055 53.5884 52.1437 53.0768 52.1966 52.5663C51.6677 52.5044 51.1394 52.4749 50.6164 52.3987L50.4142 52.3693L50.4174 52.1648C50.4264 51.6332 50.4914 51.1012 50.531 50.5653C49.4075 50.4626 48.2838 50.3735 47.1634 50.259L46.9371 50.2363L46.954 50.0095C46.9897 49.5014 47.0281 48.9934 47.0787 48.4841C45.3626 48.242 43.6287 48.1498 41.9055 47.9788L41.685 47.9566L41.6954 47.7381C41.7175 47.2136 41.7538 46.6888 41.8011 46.1613C40.68 46.0577 39.558 45.9687 38.4401 45.8468L38.217 45.8214L38.2336 45.5975C38.4145 43.2747 38.6303 40.9541 38.8254 38.6322C38.5266 38.6031 38.2277 38.5747 37.9286 38.5479C37.7056 38.528 37.4834 38.5095 37.2604 38.4924L37.022 38.4744L37.0458 38.2366C37.1004 37.7046 37.1461 37.1716 37.1417 36.6385C35.9554 36.5382 34.7697 36.438 33.5843 36.3272L33.5843 36.3272Z" fill="white"/>
<path d="M33.5829 36.326C34.7682 36.4368 35.9544 36.5382 37.1407 36.6385C37.1456 37.2382 37.091 37.8362 37.0272 38.4311C35.8204 38.3372 34.6172 38.2167 33.4101 38.1264C33.4673 37.5262 33.521 36.9258 33.5829 36.326Z" fill="#1C1C1C"/>
<path d="M31.608 37.9966C32.2077 38.0455 32.8081 38.0992 33.4097 38.1261C32.8307 44.7578 32.261 51.3903 31.6738 58.0213C31.0686 57.9824 30.4645 57.9295 29.8616 57.8639C29.9019 57.2693 29.954 56.6746 30.0141 56.0805C29.4156 56.0048 28.8148 55.9557 28.214 55.9055C28.2473 55.2974 28.2958 54.6895 28.3721 54.0852C28.9734 54.1155 29.5734 54.175 30.1747 54.2183C30.6501 48.8112 31.1058 43.4025 31.608 37.9966Z" fill="#1C1C1C"/>
<path d="M37.0309 38.4733C37.6298 38.5175 38.2277 38.5733 38.8254 38.6315C38.6238 41.0297 38.3977 43.427 38.2135 45.8268C39.4072 45.9628 40.6052 46.0501 41.8011 46.1606C41.7476 46.7587 41.6964 47.357 41.6789 47.9583C43.4769 48.1448 45.2871 48.2307 47.0781 48.4833C47.02 49.067 46.9724 49.6516 46.9341 50.237C48.1309 50.3639 49.3321 50.455 50.5316 50.5646C50.4872 51.1659 50.396 51.7665 50.4075 52.3704C50.9989 52.4748 51.5998 52.4957 52.1954 52.5654C52.1349 53.15 52.0883 53.7359 52.0522 54.3227C52.6414 54.3847 53.2322 54.4411 53.825 54.4883C53.6512 56.7965 53.4041 59.0983 53.2664 61.4085C53.0404 63.3224 52.9074 65.2444 52.7267 67.1623C52.1324 67.1056 51.5379 67.0512 50.9414 67.0728C50.783 68.8557 50.6258 70.6398 50.45 72.4211C49.856 72.3879 49.2607 72.3557 48.672 72.2749C48.7633 70.4546 48.9537 68.6406 49.1299 66.8265C49.7253 66.8845 50.3224 66.9367 50.9198 66.9843C51.2899 62.7678 51.6622 58.5526 52.0334 54.3362C51.4382 54.276 50.8422 54.225 50.2457 54.1798C50.2634 53.5903 50.3533 53.0035 50.3569 52.4139C49.7756 52.2484 49.1655 52.2652 48.5686 52.2106C48.3976 54.0181 48.2731 55.8297 48.0787 57.6363C47.4885 57.5859 46.8973 57.5341 46.3071 57.4837C46.4775 55.0675 46.7304 52.6585 46.9264 50.2445C45.7178 50.1318 44.5082 50.0294 43.2999 49.9272C43.1417 51.7347 43.0022 53.5438 42.8232 55.3482C42.2227 55.3086 41.6245 55.2562 41.0273 55.1923C41.2266 52.7809 41.4352 50.3692 41.6751 47.9615C40.4653 47.8498 39.2561 47.7428 38.0445 47.6508C37.8211 50.0577 37.6325 52.4677 37.4125 54.8748C36.8058 54.8393 36.1993 54.7874 35.5957 54.7171C36.0693 49.3028 36.5466 43.8878 37.0309 38.4733Z" fill="#1C1C1C"/>
<path d="M23.0967 51.8187C24.908 51.9467 26.7169 52.1143 28.5242 52.2877C28.4846 52.8882 28.4427 53.4873 28.3728 54.0852C27.1705 54.0081 25.9723 53.8822 24.7728 53.7866C24.6241 54.9769 24.6274 56.1839 24.4417 57.3698C23.8316 57.3866 23.227 57.2869 22.6228 57.2224C22.7769 55.4204 22.9414 53.6205 23.0967 51.8187Z" fill="#1C1C1C"/>
<path d="M24.487 57.4146C25.0757 57.376 25.6628 57.4613 26.2468 57.5288C26.2069 58.1328 26.1552 58.7369 26.0965 59.3404C26.7003 59.3967 27.3032 59.4483 27.9066 59.5093C27.8153 60.7128 27.6962 61.9138 27.598 63.1167C28.1942 63.1653 28.7911 63.2187 29.3875 63.2791C29.2739 64.4841 29.2535 65.7067 29.0254 66.8959C28.433 66.8979 27.8477 66.8045 27.2619 66.7439C27.3476 65.5505 27.4542 64.3589 27.548 63.1662C26.9512 63.1104 26.3551 63.0477 25.7602 62.9711C25.8443 61.7822 26.0064 60.5978 26.0019 59.4047C25.4244 59.3565 24.8469 59.2955 24.2734 59.2149C24.3237 58.6129 24.2981 57.995 24.487 57.4146Z" fill="#1C1C1C"/>
<path d="M29.1064 66.911C29.7006 66.9162 30.2917 66.996 30.8838 67.0513C30.7951 68.2526 30.675 69.4513 30.5736 70.6503C31.1755 70.7007 31.7796 70.7535 32.3806 70.8272C32.2872 72.0281 32.1601 73.2273 32.0725 74.4287C36.8817 74.8612 41.6921 75.2797 46.5025 75.6982C46.6262 74.4987 46.708 73.2956 46.826 72.0945C47.4423 72.1402 48.0587 72.1859 48.6713 72.2746C48.6113 74.0837 48.2772 75.8699 48.1705 77.6771C45.1138 77.4834 42.0657 77.1899 39.015 76.9276C36.0352 76.6704 33.056 76.4063 30.0814 76.1027C30.2146 74.299 30.385 72.4984 30.5158 70.6956C29.9281 70.643 29.3412 70.5823 28.7544 70.5193C28.869 69.3167 28.8786 68.0967 29.1064 66.911Z" fill="#1C1C1C"/>
</svg>
