<svg width="46" height="54" viewBox="0 0 46 54" fill="none" xmlns="http://www.w3.org/2000/svg">
<path d="M17.827 30.7161H1.11419C0.499156 30.7161 0 30.1869 0 29.5347V1.18139C0 0.529262 0.499156 0 1.11419 0H17.827C18.442 0 18.9412 0.529262 18.9412 1.18139V29.5347C18.9412 30.1869 18.442 30.7161 17.827 30.7161Z" fill="#1BB0F0"/>
<path d="M17.827 53.4194H1.11419C0.499156 53.4194 0 52.8638 0 52.1793V37.2982C0 36.6137 0.499156 36.0581 1.11419 36.0581H17.827C18.442 36.0581 18.9412 36.6137 18.9412 37.2982V52.1793C18.9412 52.8638 18.442 53.4194 17.827 53.4194Z" fill="#54EBBF"/>
<path d="M44.8824 17H28.1176C27.5007 17 27 16.456 27 15.7857V1.21429C27 0.544 27.5007 0 28.1176 0H44.8824C45.4993 0 46 0.544 46 1.21429V15.7857C46 16.456 45.4993 17 44.8824 17Z" fill="#54EBBF"/>
<path d="M44.8824 53H28.1176C27.5007 53 27 52.4831 27 51.8462V24.1538C27 23.5169 27.5007 23 28.1176 23H44.8824C45.4993 23 46 23.5169 46 24.1538V51.8462C46 52.4831 45.4993 53 44.8824 53Z" fill="#1BB0F0"/>
</svg>
