<svg viewBox="0 0 193 50" fill="none" xmlns="http://www.w3.org/2000/svg">
<path d="M0.0213623 31.8464L27.8707 46.8977V40.8902L44.5871 31.8788L22.3085 19.8271L0.0213623 31.8464Z" fill="#02D9FC"/>
<path d="M44.6681 22.3532L16.9467 37.4086V31.397L0 22.3856L22.5089 10.334L44.6681 22.3532Z" fill="#219AFB"/>
<path d="M0.0234375 12.5563L27.8727 27.6077V21.6001L44.5891 12.5847L22.3106 0.537109L0.0234375 12.5563Z" fill="#3F5CFB"/>
<path d="M73.746 28.1703C73.746 21.4867 79.0736 17.2441 85.3993 17.2441C91.725 17.2441 97.0995 21.4867 97.0995 28.1703C97.0995 34.854 91.725 39.2301 85.3993 39.2301C79.0736 39.2342 73.746 34.854 73.746 28.1703ZM92.4373 28.1703C92.4373 24.1059 89.2041 21.3976 85.395 21.3976C81.5902 21.3976 78.4039 24.1059 78.4039 28.1703C78.4039 32.2793 81.5902 35.0321 85.395 35.0321C89.2041 35.0321 92.4373 32.2793 92.4373 28.1703Z" fill="white"/>
<path d="M119.173 17.6973L105.379 49.0307H100.431L105.187 37.8778L96.3401 17.6973H101.382L107.755 32.3681L114.127 17.6973H119.173Z" fill="white"/>
<path d="M141.673 17.6975V38.7808H137.011V35.6191C135.535 38.0116 132.349 39.2301 129.35 39.2301C123.31 39.2301 118.316 34.8945 118.316 28.2149C118.316 21.4867 123.31 17.2441 129.303 17.2441C132.443 17.2441 135.535 18.4181 137.011 20.8106V17.6975H141.673ZM136.964 28.1703C136.964 23.9278 133.3 21.4422 129.875 21.4422C126.07 21.4422 122.978 24.195 122.978 28.1703C122.978 32.0971 126.07 35.0321 129.875 35.0321C133.633 35.0321 136.964 32.417 136.964 28.1703Z" fill="white"/>
<path d="M167.74 17.6975V35.6191C167.74 45.4159 162.984 49.2981 155.515 49.2981C151.331 49.2981 147.428 47.2214 145.333 43.4727L149.283 41.6227C150.52 43.8816 153.088 45.1892 155.515 45.1892C160.177 45.1892 163.078 42.659 163.078 35.9794V35.7082C161.555 38.0116 158.369 39.2301 155.417 39.2301C149.377 39.2301 144.382 34.8945 144.382 28.2149C144.382 21.4867 149.377 17.2441 155.37 17.2441C158.462 17.2441 161.555 18.4181 163.078 20.7661V17.6975H167.74ZM163.031 28.1703C163.031 23.9278 159.367 21.4422 155.942 21.4422C152.137 21.4422 149.044 24.195 149.044 28.1703C149.044 32.0971 152.137 35.0321 155.942 35.0321C159.704 35.0321 163.031 32.417 163.031 28.1703Z" fill="white"/>
<path d="M192.906 30.0243H175.209C175.827 33.4572 178.728 35.1251 182.345 35.1251C184.913 35.1251 187.34 34.0887 188.577 32.1456L192.288 33.9066C190.338 37.4285 186.342 39.234 182.106 39.234C175.682 39.234 170.402 34.8538 170.402 28.1743C170.402 21.4947 175.537 17.248 181.867 17.248C188.193 17.248 193 21.4906 193 28.1297C193 28.7127 192.953 29.3442 192.906 30.0243ZM188.338 26.4537C187.911 23.1585 185.339 21.353 181.914 21.353C178.489 21.353 175.921 22.9763 175.256 26.4537H188.338Z" fill="white"/>
<path d="M72.914 8.25293L63.5471 32.514L54.1801 8.25293H48.7544L61.3034 39.3515H65.377L78.0625 8.25293H72.914Z" fill="white"/>
</svg>
