<svg width="155" height="40" viewBox="0 0 155 40" fill="none" xmlns="http://www.w3.org/2000/svg">
<path d="M0.0170898 25.1447L22.3831 37.2326V32.4078L35.8082 25.1707L17.9161 15.4919L0.0170898 25.1447Z" fill="#02D9FC"/>
<path d="M35.8733 17.5204L13.6101 29.6116V24.7836L0 17.5464L18.0771 7.86768L35.8733 17.5204Z" fill="#219AFB"/>
<path d="M0.019043 9.65275L22.3851 21.7406V16.9159L35.8101 9.67551L17.918 0L0.019043 9.65275Z" fill="#3F5CFB"/>
<path d="M59.226 22.1927C59.226 16.825 63.5046 13.4177 68.5848 13.4177C73.665 13.4177 77.9813 16.825 77.9813 22.1927C77.9813 27.5604 73.665 31.0749 68.5848 31.0749C63.5046 31.0781 59.226 27.5604 59.226 22.1927ZM74.2371 22.1927C74.2371 18.9285 71.6405 16.7534 68.5814 16.7534C65.5257 16.7534 62.9668 18.9285 62.9668 22.1927C62.9668 25.4926 65.5257 27.7034 68.5814 27.7034C71.6405 27.7034 74.2371 25.4926 74.2371 22.1927Z" fill="black"/>
<path d="M95.709 13.7817L84.6305 38.9459H80.6568L84.4764 29.9889L77.3716 13.7817H81.4207L86.5386 25.564L91.6565 13.7817H95.709Z" fill="black"/>
<path d="M113.779 13.7819V30.714H110.035V28.1748C108.85 30.0963 106.291 31.0749 103.882 31.0749C99.0317 31.0749 95.0203 27.5929 95.0203 22.2284C95.0203 16.825 99.0317 13.4177 103.845 13.4177C106.366 13.4177 108.85 14.3606 110.035 16.282V13.7819H113.779ZM109.997 22.1927C109.997 18.7854 107.055 16.7892 104.304 16.7892C101.248 16.7892 98.7645 19 98.7645 22.1927C98.7645 25.3463 101.248 27.7034 104.304 27.7034C107.322 27.7034 109.997 25.6031 109.997 22.1927Z" fill="black"/>
<path d="M134.713 13.7819V28.1748C134.713 36.0427 130.894 39.1606 124.895 39.1606C121.535 39.1606 118.4 37.4927 116.718 34.4821L119.891 32.9963C120.884 34.8105 122.946 35.8606 124.895 35.8606C128.64 35.8606 130.969 33.8286 130.969 28.4642V28.2464C129.746 30.0963 127.187 31.0749 124.817 31.0749C119.966 31.0749 115.954 27.5929 115.954 22.2284C115.954 16.825 119.966 13.4177 124.779 13.4177C127.263 13.4177 129.746 14.3606 130.969 16.2463V13.7819H134.713ZM130.931 22.1927C130.931 18.7854 127.989 16.7892 125.238 16.7892C122.182 16.7892 119.699 19 119.699 22.1927C119.699 25.3463 122.182 27.7034 125.238 27.7034C128.259 27.7034 130.931 25.6031 130.931 22.1927Z" fill="black"/>
<path d="M154.925 23.6816H140.712C141.208 26.4386 143.538 27.7781 146.443 27.7781C148.505 27.7781 150.454 26.9458 151.448 25.3852L154.428 26.7995C152.863 29.628 149.653 31.078 146.251 31.078C141.092 31.078 136.851 27.5603 136.851 22.1958C136.851 16.8314 140.976 13.4209 146.059 13.4209C151.139 13.4209 155 16.8281 155 22.1601C155 22.6282 154.962 23.1354 154.925 23.6816ZM151.256 20.8141C150.913 18.1676 148.848 16.7176 146.097 16.7176C143.346 16.7176 141.284 18.0213 140.749 20.8141H151.256Z" fill="black"/>
<path d="M58.558 6.19678L51.0353 25.6811L43.5126 6.19678H39.1552L49.2334 31.1723H52.5049L62.6927 6.19678H58.558Z" fill="black"/>
</svg>
