<svg width="35" height="32" viewBox="0 0 35 32" fill="none" xmlns="http://www.w3.org/2000/svg">
<path d="M0.900024 22.93L17.4892 14.9725L34.4984 22.93L17.4892 31.7717L0.900024 22.93Z" fill="white"/>
<path d="M0.900024 16.2535L17.4892 8.45837L34.4984 16.2535L17.4892 24.9147L0.900024 16.2535Z" fill="#162740"/>
<path d="M0.900146 9.17461L17.4893 0.573059L34.4985 9.17461L17.4893 18.0579L0.900146 9.17461Z" fill="#02D9FC"/>
<path d="M13.8099 6.0349L14.4342 8.14208L12.2962 9.71113C11.9217 9.99191 12.1642 10.4479 12.716 10.4932L15.7404 10.7205L17.1712 12.6031C17.4357 12.9363 18.1474 12.9117 18.3714 12.5666L19.6386 10.5938L22.6405 10.2067C23.169 10.1358 23.3732 9.65417 22.9779 9.3933L20.7292 7.96279L21.1397 5.83668C21.2094 5.44782 20.6398 5.17265 20.1638 5.36204L17.5093 6.44222L14.7422 5.51952C14.2705 5.35622 13.7016 5.65221 13.8099 6.0349Z" fill="#162740"/>
</svg>
