<svg width="87" height="66" viewBox="0 0 87 66" fill="none" xmlns="http://www.w3.org/2000/svg">
<path d="M84.6008 5.44502C85.9259 5.44502 87.0001 4.35105 87.0001 3.00156C87.0001 1.65208 85.9259 0.558105 84.6008 0.558105C83.2757 0.558105 82.2015 1.65208 82.2015 3.00156C82.2015 4.35105 83.2757 5.44502 84.6008 5.44502Z" fill="#5BEBC1"/>
<path d="M75.004 5.44502C76.3291 5.44502 77.4033 4.35105 77.4033 3.00156C77.4033 1.65208 76.3291 0.558105 75.004 0.558105C73.6789 0.558105 72.6047 1.65208 72.6047 3.00156C72.6047 4.35105 73.6789 5.44502 75.004 5.44502Z" fill="#5BEBC1"/>
<path d="M84.6008 16.8405C85.9259 16.8405 87.0001 15.7465 87.0001 14.3971C87.0001 13.0476 85.9259 11.9536 84.6008 11.9536C83.2757 11.9536 82.2015 13.0476 82.2015 14.3971C82.2015 15.7465 83.2757 16.8405 84.6008 16.8405Z" fill="#5BEBC1"/>
<path d="M75.004 16.8405C76.3291 16.8405 77.4033 15.7465 77.4033 14.3971C77.4033 13.0476 76.3291 11.9536 75.004 11.9536C73.6789 11.9536 72.6047 13.0476 72.6047 14.3971C72.6047 15.7465 73.6789 16.8405 75.004 16.8405Z" fill="#5BEBC1"/>
<path d="M84.6008 29.8679C85.9259 29.8679 87.0001 28.7739 87.0001 27.4244C87.0001 26.0749 85.9259 24.981 84.6008 24.981C83.2757 24.981 82.2015 26.0749 82.2015 27.4244C82.2015 28.7739 83.2757 29.8679 84.6008 29.8679Z" fill="#5BEBC1"/>
<path d="M75.004 29.8679C76.3291 29.8679 77.4033 28.7739 77.4033 27.4244C77.4033 26.0749 76.3291 24.981 75.004 24.981C73.6789 24.981 72.6047 26.0749 72.6047 27.4244C72.6047 28.7739 73.6789 29.8679 75.004 29.8679Z" fill="#5BEBC1"/>
<path d="M84.6008 41.2629C85.9259 41.2629 87.0001 40.1689 87.0001 38.8194C87.0001 37.47 85.9259 36.376 84.6008 36.376C83.2757 36.376 82.2015 37.47 82.2015 38.8194C82.2015 40.1689 83.2757 41.2629 84.6008 41.2629Z" fill="#5BEBC1"/>
<path d="M75.004 41.2629C76.3291 41.2629 77.4033 40.1689 77.4033 38.8194C77.4033 37.47 76.3291 36.376 75.004 36.376C73.6789 36.376 72.6047 37.47 72.6047 38.8194C72.6047 40.1689 73.6789 41.2629 75.004 41.2629Z" fill="#5BEBC1"/>
<path d="M84.6008 52.6579C85.9259 52.6579 87.0001 51.5639 87.0001 50.2144C87.0001 48.865 85.9259 47.771 84.6008 47.771C83.2757 47.771 82.2015 48.865 82.2015 50.2144C82.2015 51.5639 83.2757 52.6579 84.6008 52.6579Z" fill="#5BEBC1"/>
<path d="M75.004 52.6579C76.3291 52.6579 77.4033 51.5639 77.4033 50.2144C77.4033 48.865 76.3291 47.771 75.004 47.771C73.6789 47.771 72.6047 48.865 72.6047 50.2144C72.6047 51.5639 73.6789 52.6579 75.004 52.6579Z" fill="#5BEBC1"/>
<path d="M84.6008 65.6784C85.9259 65.6784 87.0001 64.5844 87.0001 63.235C87.0001 61.8855 85.9259 60.7915 84.6008 60.7915C83.2757 60.7915 82.2015 61.8855 82.2015 63.235C82.2015 64.5844 83.2757 65.6784 84.6008 65.6784Z" fill="#5BEBC1"/>
<path d="M75.004 65.6784C76.3291 65.6784 77.4033 64.5844 77.4033 63.235C77.4033 61.8855 76.3291 60.7915 75.004 60.7915C73.6789 60.7915 72.6047 61.8855 72.6047 63.235C72.6047 64.5844 73.6789 65.6784 75.004 65.6784Z" fill="#5BEBC1"/>
<path d="M65.4122 5.44502C66.7373 5.44502 67.8115 4.35105 67.8115 3.00156C67.8115 1.65208 66.7373 0.558105 65.4122 0.558105C64.0871 0.558105 63.0129 1.65208 63.0129 3.00156C63.0129 4.35105 64.0871 5.44502 65.4122 5.44502Z" fill="#5BEBC1"/>
<path d="M65.4122 16.8405C66.7373 16.8405 67.8115 15.7465 67.8115 14.3971C67.8115 13.0476 66.7373 11.9536 65.4122 11.9536C64.0871 11.9536 63.0129 13.0476 63.0129 14.3971C63.0129 15.7465 64.0871 16.8405 65.4122 16.8405Z" fill="#5BEBC1"/>
<path d="M65.4122 29.8679C66.7373 29.8679 67.8115 28.7739 67.8115 27.4244C67.8115 26.0749 66.7373 24.981 65.4122 24.981C64.0871 24.981 63.0129 26.0749 63.0129 27.4244C63.0129 28.7739 64.0871 29.8679 65.4122 29.8679Z" fill="#5BEBC1"/>
<path d="M65.4122 41.2629C66.7373 41.2629 67.8115 40.1689 67.8115 38.8194C67.8115 37.47 66.7373 36.376 65.4122 36.376C64.0871 36.376 63.0129 37.47 63.0129 38.8194C63.0129 40.1689 64.0871 41.2629 65.4122 41.2629Z" fill="#5BEBC1"/>
<path d="M65.4122 52.6579C66.7373 52.6579 67.8115 51.5639 67.8115 50.2144C67.8115 48.865 66.7373 47.771 65.4122 47.771C64.0871 47.771 63.0129 48.865 63.0129 50.2144C63.0129 51.5639 64.0871 52.6579 65.4122 52.6579Z" fill="#5BEBC1"/>
<path d="M65.4122 65.6784C66.7373 65.6784 67.8115 64.5844 67.8115 63.235C67.8115 61.8855 66.7373 60.7915 65.4122 60.7915C64.0871 60.7915 63.0129 61.8855 63.0129 63.235C63.0129 64.5844 64.0871 65.6784 65.4122 65.6784Z" fill="#5BEBC1"/>
<path d="M57.4227 5.44502C58.7478 5.44502 59.822 4.35105 59.822 3.00156C59.822 1.65208 58.7478 0.558105 57.4227 0.558105C56.0976 0.558105 55.0234 1.65208 55.0234 3.00156C55.0234 4.35105 56.0976 5.44502 57.4227 5.44502Z" fill="#5BEBC1"/>
<path d="M57.4227 16.8405C58.7478 16.8405 59.822 15.7465 59.822 14.3971C59.822 13.0476 58.7478 11.9536 57.4227 11.9536C56.0976 11.9536 55.0234 13.0476 55.0234 14.3971C55.0234 15.7465 56.0976 16.8405 57.4227 16.8405Z" fill="#5BEBC1"/>
<path d="M57.4227 29.8679C58.7478 29.8679 59.822 28.7739 59.822 27.4244C59.822 26.0749 58.7478 24.981 57.4227 24.981C56.0976 24.981 55.0234 26.0749 55.0234 27.4244C55.0234 28.7739 56.0976 29.8679 57.4227 29.8679Z" fill="#5BEBC1"/>
<path d="M57.4227 41.2629C58.7478 41.2629 59.822 40.1689 59.822 38.8194C59.822 37.47 58.7478 36.376 57.4227 36.376C56.0976 36.376 55.0234 37.47 55.0234 38.8194C55.0234 40.1689 56.0976 41.2629 57.4227 41.2629Z" fill="#5BEBC1"/>
<path d="M57.4227 52.6579C58.7478 52.6579 59.822 51.5639 59.822 50.2144C59.822 48.865 58.7478 47.771 57.4227 47.771C56.0976 47.771 55.0234 48.865 55.0234 50.2144C55.0234 51.5639 56.0976 52.6579 57.4227 52.6579Z" fill="#5BEBC1"/>
<path d="M57.4227 65.6784C58.7478 65.6784 59.822 64.5844 59.822 63.235C59.822 61.8855 58.7478 60.7915 57.4227 60.7915C56.0976 60.7915 55.0234 61.8855 55.0234 63.235C55.0234 64.5844 56.0976 65.6784 57.4227 65.6784Z" fill="#5BEBC1"/>
<path d="M47.8309 5.44502C49.156 5.44502 50.2302 4.35105 50.2302 3.00156C50.2302 1.65208 49.156 0.558105 47.8309 0.558105C46.5058 0.558105 45.4316 1.65208 45.4316 3.00156C45.4316 4.35105 46.5058 5.44502 47.8309 5.44502Z" fill="#5BEBC1"/>
<path d="M47.8309 16.8405C49.156 16.8405 50.2302 15.7465 50.2302 14.3971C50.2302 13.0476 49.156 11.9536 47.8309 11.9536C46.5058 11.9536 45.4316 13.0476 45.4316 14.3971C45.4316 15.7465 46.5058 16.8405 47.8309 16.8405Z" fill="#5BEBC1"/>
<path d="M47.8309 29.8679C49.156 29.8679 50.2302 28.7739 50.2302 27.4244C50.2302 26.0749 49.156 24.981 47.8309 24.981C46.5058 24.981 45.4316 26.0749 45.4316 27.4244C45.4316 28.7739 46.5058 29.8679 47.8309 29.8679Z" fill="#5BEBC1"/>
<path d="M47.8309 41.2629C49.156 41.2629 50.2302 40.1689 50.2302 38.8194C50.2302 37.47 49.156 36.376 47.8309 36.376C46.5058 36.376 45.4316 37.47 45.4316 38.8194C45.4316 40.1689 46.5058 41.2629 47.8309 41.2629Z" fill="#5BEBC1"/>
<path d="M47.8309 52.6579C49.156 52.6579 50.2302 51.5639 50.2302 50.2144C50.2302 48.865 49.156 47.771 47.8309 47.771C46.5058 47.771 45.4316 48.865 45.4316 50.2144C45.4316 51.5639 46.5058 52.6579 47.8309 52.6579Z" fill="#5BEBC1"/>
<path d="M47.8309 65.6784C49.156 65.6784 50.2302 64.5844 50.2302 63.235C50.2302 61.8855 49.156 60.7915 47.8309 60.7915C46.5058 60.7915 45.4316 61.8855 45.4316 63.235C45.4316 64.5844 46.5058 65.6784 47.8309 65.6784Z" fill="#5BEBC1"/>
<path d="M39.8407 5.44502C41.1657 5.44502 42.2399 4.35105 42.2399 3.00156C42.2399 1.65208 41.1657 0.558105 39.8407 0.558105C38.5156 0.558105 37.4414 1.65208 37.4414 3.00156C37.4414 4.35105 38.5156 5.44502 39.8407 5.44502Z" fill="#5BEBC1"/>
<path d="M39.8407 16.8405C41.1657 16.8405 42.2399 15.7465 42.2399 14.3971C42.2399 13.0476 41.1657 11.9536 39.8407 11.9536C38.5156 11.9536 37.4414 13.0476 37.4414 14.3971C37.4414 15.7465 38.5156 16.8405 39.8407 16.8405Z" fill="#5BEBC1"/>
<path d="M39.8407 29.8679C41.1657 29.8679 42.2399 28.7739 42.2399 27.4244C42.2399 26.0749 41.1657 24.981 39.8407 24.981C38.5156 24.981 37.4414 26.0749 37.4414 27.4244C37.4414 28.7739 38.5156 29.8679 39.8407 29.8679Z" fill="#5BEBC1"/>
<path d="M39.8407 41.2629C41.1657 41.2629 42.2399 40.1689 42.2399 38.8194C42.2399 37.47 41.1657 36.376 39.8407 36.376C38.5156 36.376 37.4414 37.47 37.4414 38.8194C37.4414 40.1689 38.5156 41.2629 39.8407 41.2629Z" fill="#5BEBC1"/>
<path d="M39.8407 52.6579C41.1657 52.6579 42.2399 51.5639 42.2399 50.2144C42.2399 48.865 41.1657 47.771 39.8407 47.771C38.5156 47.771 37.4414 48.865 37.4414 50.2144C37.4414 51.5639 38.5156 52.6579 39.8407 52.6579Z" fill="#5BEBC1"/>
<path d="M39.8407 65.6784C41.1657 65.6784 42.2399 64.5844 42.2399 63.235C42.2399 61.8855 41.1657 60.7915 39.8407 60.7915C38.5156 60.7915 37.4414 61.8855 37.4414 63.235C37.4414 64.5844 38.5156 65.6784 39.8407 65.6784Z" fill="#5BEBC1"/>
<path d="M30.2506 5.44502C31.5757 5.44502 32.6498 4.35105 32.6498 3.00156C32.6498 1.65208 31.5757 0.558105 30.2506 0.558105C28.9255 0.558105 27.8513 1.65208 27.8513 3.00156C27.8513 4.35105 28.9255 5.44502 30.2506 5.44502Z" fill="#5BEBC1"/>
<path d="M30.2506 16.8405C31.5757 16.8405 32.6498 15.7465 32.6498 14.3971C32.6498 13.0476 31.5757 11.9536 30.2506 11.9536C28.9255 11.9536 27.8513 13.0476 27.8513 14.3971C27.8513 15.7465 28.9255 16.8405 30.2506 16.8405Z" fill="#5BEBC1"/>
<path d="M30.2506 29.8679C31.5757 29.8679 32.6498 28.7739 32.6498 27.4244C32.6498 26.0749 31.5757 24.981 30.2506 24.981C28.9255 24.981 27.8513 26.0749 27.8513 27.4244C27.8513 28.7739 28.9255 29.8679 30.2506 29.8679Z" fill="#5BEBC1"/>
<path d="M30.2506 41.2629C31.5757 41.2629 32.6498 40.1689 32.6498 38.8194C32.6498 37.47 31.5757 36.376 30.2506 36.376C28.9255 36.376 27.8513 37.47 27.8513 38.8194C27.8513 40.1689 28.9255 41.2629 30.2506 41.2629Z" fill="#5BEBC1"/>
<path d="M30.2506 52.6579C31.5757 52.6579 32.6498 51.5639 32.6498 50.2144C32.6498 48.865 31.5757 47.771 30.2506 47.771C28.9255 47.771 27.8513 48.865 27.8513 50.2144C27.8513 51.5639 28.9255 52.6579 30.2506 52.6579Z" fill="#5BEBC1"/>
<path d="M30.2506 65.6784C31.5757 65.6784 32.6498 64.5844 32.6498 63.235C32.6498 61.8855 31.5757 60.7915 30.2506 60.7915C28.9255 60.7915 27.8513 61.8855 27.8513 63.235C27.8513 64.5844 28.9255 65.6784 30.2506 65.6784Z" fill="#5BEBC1"/>
<path d="M22.2545 5.44502C23.5796 5.44502 24.6538 4.35105 24.6538 3.00156C24.6538 1.65208 23.5796 0.558105 22.2545 0.558105C20.9294 0.558105 19.8552 1.65208 19.8552 3.00156C19.8552 4.35105 20.9294 5.44502 22.2545 5.44502Z" fill="#5BEBC1"/>
<path d="M22.2545 16.8405C23.5796 16.8405 24.6538 15.7465 24.6538 14.3971C24.6538 13.0476 23.5796 11.9536 22.2545 11.9536C20.9294 11.9536 19.8552 13.0476 19.8552 14.3971C19.8552 15.7465 20.9294 16.8405 22.2545 16.8405Z" fill="#5BEBC1"/>
<path d="M22.2545 29.8679C23.5796 29.8679 24.6538 28.7739 24.6538 27.4244C24.6538 26.0749 23.5796 24.981 22.2545 24.981C20.9294 24.981 19.8552 26.0749 19.8552 27.4244C19.8552 28.7739 20.9294 29.8679 22.2545 29.8679Z" fill="#5BEBC1"/>
<path d="M22.2545 41.2629C23.5796 41.2629 24.6538 40.1689 24.6538 38.8194C24.6538 37.47 23.5796 36.376 22.2545 36.376C20.9294 36.376 19.8552 37.47 19.8552 38.8194C19.8552 40.1689 20.9294 41.2629 22.2545 41.2629Z" fill="#5BEBC1"/>
<path d="M22.2545 52.6579C23.5796 52.6579 24.6538 51.5639 24.6538 50.2144C24.6538 48.865 23.5796 47.771 22.2545 47.771C20.9294 47.771 19.8552 48.865 19.8552 50.2144C19.8552 51.5639 20.9294 52.6579 22.2545 52.6579Z" fill="#5BEBC1"/>
<path d="M22.2545 65.6784C23.5796 65.6784 24.6538 64.5844 24.6538 63.235C24.6538 61.8855 23.5796 60.7915 22.2545 60.7915C20.9294 60.7915 19.8552 61.8855 19.8552 63.235C19.8552 64.5844 20.9294 65.6784 22.2545 65.6784Z" fill="#5BEBC1"/>
<path d="M12.6626 5.44502C13.9876 5.44502 15.0618 4.35105 15.0618 3.00156C15.0618 1.65208 13.9876 0.558105 12.6626 0.558105C11.3375 0.558105 10.2633 1.65208 10.2633 3.00156C10.2633 4.35105 11.3375 5.44502 12.6626 5.44502Z" fill="#5BEBC1"/>
<path d="M12.6626 16.8405C13.9876 16.8405 15.0618 15.7465 15.0618 14.3971C15.0618 13.0476 13.9876 11.9536 12.6626 11.9536C11.3375 11.9536 10.2633 13.0476 10.2633 14.3971C10.2633 15.7465 11.3375 16.8405 12.6626 16.8405Z" fill="#5BEBC1"/>
<path d="M12.6626 29.8679C13.9876 29.8679 15.0618 28.7739 15.0618 27.4244C15.0618 26.0749 13.9876 24.981 12.6626 24.981C11.3375 24.981 10.2633 26.0749 10.2633 27.4244C10.2633 28.7739 11.3375 29.8679 12.6626 29.8679Z" fill="#5BEBC1"/>
<path d="M12.6626 41.2629C13.9876 41.2629 15.0618 40.1689 15.0618 38.8194C15.0618 37.47 13.9876 36.376 12.6626 36.376C11.3375 36.376 10.2633 37.47 10.2633 38.8194C10.2633 40.1689 11.3375 41.2629 12.6626 41.2629Z" fill="#5BEBC1"/>
<path d="M12.6626 52.6579C13.9876 52.6579 15.0618 51.5639 15.0618 50.2144C15.0618 48.865 13.9876 47.771 12.6626 47.771C11.3375 47.771 10.2633 48.865 10.2633 50.2144C10.2633 51.5639 11.3375 52.6579 12.6626 52.6579Z" fill="#5BEBC1"/>
<path d="M12.6626 65.6784C13.9876 65.6784 15.0618 64.5844 15.0618 63.235C15.0618 61.8855 13.9876 60.7915 12.6626 60.7915C11.3375 60.7915 10.2633 61.8855 10.2633 63.235C10.2633 64.5844 11.3375 65.6784 12.6626 65.6784Z" fill="#5BEBC1"/>
<path d="M3.07176 5.44797C4.39685 5.44797 5.47105 4.354 5.47105 3.0045C5.47105 1.65501 4.39685 0.561035 3.07176 0.561035C1.74668 0.561035 0.672485 1.65501 0.672485 3.0045C0.672485 4.354 1.74668 5.44797 3.07176 5.44797Z" fill="#5BEBC1"/>
<path d="M3.07164 16.8405C4.39673 16.8405 5.47093 15.7465 5.47093 14.3971C5.47093 13.0476 4.39673 11.9536 3.07164 11.9536C1.74655 11.9536 0.672363 13.0476 0.672363 14.3971C0.672363 15.7465 1.74655 16.8405 3.07164 16.8405Z" fill="#5BEBC1"/>
<path d="M3.07164 29.8679C4.39673 29.8679 5.47093 28.7739 5.47093 27.4244C5.47093 26.0749 4.39673 24.981 3.07164 24.981C1.74655 24.981 0.672363 26.0749 0.672363 27.4244C0.672363 28.7739 1.74655 29.8679 3.07164 29.8679Z" fill="#5BEBC1"/>
<path d="M3.07164 41.2629C4.39673 41.2629 5.47093 40.1689 5.47093 38.8194C5.47093 37.47 4.39673 36.376 3.07164 36.376C1.74655 36.376 0.672363 37.47 0.672363 38.8194C0.672363 40.1689 1.74655 41.2629 3.07164 41.2629Z" fill="#5BEBC1"/>
<path d="M3.07164 52.6579C4.39673 52.6579 5.47093 51.5639 5.47093 50.2144C5.47093 48.865 4.39673 47.771 3.07164 47.771C1.74655 47.771 0.672363 48.865 0.672363 50.2144C0.672363 51.5639 1.74655 52.6579 3.07164 52.6579Z" fill="#5BEBC1"/>
<path d="M3.07164 65.6784C4.39673 65.6784 5.47093 64.5844 5.47093 63.235C5.47093 61.8855 4.39673 60.7915 3.07164 60.7915C1.74655 60.7915 0.672363 61.8855 0.672363 63.235C0.672363 64.5844 1.74655 65.6784 3.07164 65.6784Z" fill="#5BEBC1"/>
</svg>
