<svg width="240" height="35" viewBox="0 0 240 35" fill="none" xmlns="http://www.w3.org/2000/svg">
<path d="M22.2214 32.0579L1.97137 0.17627H0.16333V16.5538H1.82672V3.23341L22.0044 34.8239H23.8124V0.17627H22.2214V32.0579Z" fill="white"/>
<path d="M56.5017 0.17627H41.9651V1.996H56.5017V0.17627Z" fill="white"/>
<path d="M56.5017 9.2749H41.9651V11.0946H56.5017V9.2749Z" fill="white"/>
<path d="M56.5017 33.0044H41.9651V34.8241H56.5017V33.0044Z" fill="white"/>
<path d="M239.837 0.17627H223.492V1.996H239.837V0.17627Z" fill="white"/>
<path d="M153.557 1.996H164.478V0.17627H142.709V1.996H153.557Z" fill="white"/>
<path d="M239.837 16.5537H223.492V18.3734H239.837V16.5537Z" fill="white"/>
<path d="M239.837 33.0044H223.492V34.8241H239.837V33.0044Z" fill="white"/>
<path d="M98.2312 16.5537H85.5027V18.0095H96.7125C96.7125 18.0095 96.7848 22.0129 94.6152 26.2347C92.3009 30.6748 89.1911 33.4408 84.6348 33.4408C75.3777 33.4408 72.4125 23.1048 72.4125 16.481H70.9661C71.183 24.7061 74.2205 34.751 84.4179 34.751C91.5054 34.751 94.7598 29.0007 96.7848 24.415V34.751H98.1589V16.5537H98.2312Z" fill="white"/>
<path d="M121.229 0.17627L113.202 24.1967L114.72 24.6334L115.588 22.0858H128.389L132.656 34.8967H134.32L122.893 0.17627H121.229ZM116.167 20.4116L122.097 3.01504L128.1 20.4116H116.167Z" fill="white"/>
<path d="M179.882 9.2749H178.074V34.8239H179.882V9.2749Z" fill="white"/>
<path d="M154.497 0.17627H152.689V34.8967H154.497V0.17627Z" fill="white"/>
<path d="M204.399 31.5484L194.419 0.17627H192.611L203.531 34.8239H205.339L211.703 14.7341H209.823L204.399 31.5484Z" fill="white"/>
</svg>
