<svg width="18" height="17" viewBox="0 0 18 17" fill="none" xmlns="http://www.w3.org/2000/svg">
<path d="M13.8092 10.2941L17.4533 7.43759C17.9688 7.03194 17.7022 6.23753 17.0267 6.20373L12.3337 5.93329C12.0493 5.91639 11.8005 5.74737 11.6938 5.49384L9.96951 1.30208C9.72064 0.710504 8.84961 0.710504 8.60074 1.30208L6.87645 5.47693C6.76979 5.73047 6.52092 5.89949 6.2365 5.91639L1.5258 6.18683C0.850302 6.22063 0.583658 7.01504 1.09917 7.42069L4.7433 10.2603C4.95661 10.4293 5.06327 10.7166 4.99216 10.9702L3.80116 15.314C3.64117 15.9225 4.33444 16.4127 4.90328 16.0746L8.86738 13.6576C9.11625 13.5055 9.41845 13.5055 9.64954 13.6576L13.6314 16.0746C14.2003 16.4127 14.8935 15.9225 14.7335 15.314L13.5425 10.9871C13.4892 10.7335 13.5781 10.4631 13.8092 10.2941Z" fill="#E9B531" fill-opacity="0.9"/>
</svg>
